<?xml version="1.0" encoding="utf-8"?><svg xmlns="http://www.w3.org/2000/svg" xmlns:xlink="http://www.w3.org/1999/xlink"><symbol viewBox="0 0 52.946 52.946" id="amount" xmlns="http://www.w3.org/2000/svg"><path d="M52.946 16.736c0-4.107-10.196-6.5-21.558-7.034a105.33 105.33 0 0 0-9.829 0C10.197 10.237 0 12.63 0 16.736v.149c0 14.597 11.876 26.473 26.474 26.473 14.597 0 26.473-11.876 26.473-26.473v-.149h-.001zm-2 .001c-.001 2.1-9.534 5.149-24.473 5.149S2.002 18.836 2 16.737c.001-2.1 9.535-5.149 24.474-5.149s24.471 3.049 24.472 5.149zM26.474 41.358c-12.522 0-22.872-9.455-24.299-21.599 4.299 2.719 14.343 4.126 24.299 4.126s19.999-1.408 24.298-4.126c-1.428 12.145-11.777 21.599-24.298 21.599z"/></symbol><symbol viewBox="0 0 129 129" id="arrowDown" xmlns="http://www.w3.org/2000/svg"><path d="M121.3 34.6c-1.6-1.6-4.2-1.6-5.8 0l-51 51.1-51.1-51.1c-1.6-1.6-4.2-1.6-5.8 0-1.6 1.6-1.6 4.2 0 5.8l53.9 53.9c.8.8 1.8 1.2 2.9 1.2 1 0 2.1-.4 2.9-1.2l53.9-53.9c1.7-1.6 1.7-4.2.1-5.8z"/></symbol><symbol viewBox="0 0 284.929 284.929" id="arrowUp" xmlns="http://www.w3.org/2000/svg"><path d="M282.082 195.285L149.028 62.24c-1.901-1.903-4.088-2.856-6.562-2.856s-4.665.953-6.567 2.856L2.856 195.285C.95 197.191 0 199.378 0 201.853c0 2.474.953 4.664 2.856 6.566l14.272 14.271c1.903 1.903 4.093 2.854 6.567 2.854s4.664-.951 6.567-2.854l112.204-112.202 112.208 112.209c1.902 1.903 4.093 2.848 6.563 2.848 2.478 0 4.668-.951 6.57-2.848l14.274-14.277c1.902-1.902 2.847-4.093 2.847-6.566.001-2.476-.944-4.666-2.846-6.569z"/></symbol><symbol viewBox="0 0 490.875 490.875" id="basket" xmlns="http://www.w3.org/2000/svg"><path d="M451.611 178.111h-31.244c3.668 20.593-5.14 42.301-23.979 53.957a52.522 52.522 0 0 1-27.635 7.869c-18.359 0-35.082-9.312-44.729-24.912-6.822-11.033-9.033-24.246-6.75-36.915h-143.67c2.273 12.669.063 25.881-6.758 36.922-9.639 15.592-26.362 24.904-44.721 24.904a52.554 52.554 0 0 1-27.646-7.869c-18.835-11.656-27.646-33.364-23.974-53.957H39.263C17.575 178.11 0 195.685 0 217.373c0 21.676 17.575 39.25 39.263 39.25h4.331l28.793 175.116c3.019 18.319 18.847 31.771 37.423 31.771h271.254c18.575 0 34.403-13.452 37.42-31.771l28.784-175.114h4.343c21.686 0 39.264-17.576 39.264-39.251 0-21.688-17.58-39.263-39.264-39.263zM167.419 418.083c-1.186.174-2.36.266-3.523.266-11.459 0-21.503-8.391-23.269-20.069l-16.306-108.682c-1.931-12.87 6.931-24.861 19.801-26.792 12.886-1.875 24.853 6.931 26.792 19.793l16.31 108.692c1.931 12.866-6.935 24.86-19.805 26.792zm101.578-23.301c0 13.018-10.541 23.564-23.552 23.564-13.016 0-23.552-10.549-23.552-23.564V286.093c0-13.004 10.537-23.553 23.552-23.553 13.011 0 23.552 10.549 23.552 23.553v108.689zm97.564-105.186l-16.317 108.682c-1.754 11.68-11.797 20.069-23.256 20.069-1.168 0-2.338-.091-3.527-.266-12.869-1.931-21.732-13.926-19.801-26.792l16.307-108.692c1.938-12.87 13.857-21.732 26.791-19.794 12.867 1.931 21.732 13.924 19.803 26.793z"/><path d="M102.748 218.713a36.694 36.694 0 0 0 19.379 5.521c12.341 0 24.407-6.199 31.362-17.464 6.415-10.375 6.967-22.646 2.739-33.151l69.947-113.048c6.321-10.222 3.16-23.611-7.062-29.944a21.692 21.692 0 0 0-11.423-3.263c-7.286 0-14.402 3.661-18.528 10.324l-69.924 113.048c-11.282.906-22.02 6.86-28.435 17.232-10.717 17.315-5.354 40.035 11.945 50.745zm231.904-45.094c-4.228 10.505-3.688 22.776 2.729 33.151 6.967 11.266 19.021 17.464 31.373 17.464a36.724 36.724 0 0 0 19.379-5.521c17.299-10.71 22.65-33.431 11.937-50.745-6.398-10.372-17.146-16.326-28.418-17.232L301.7 37.688c-4.114-6.664-11.231-10.324-18.519-10.324-3.899 0-7.855 1.06-11.427 3.263-10.218 6.333-13.354 19.722-7.058 29.944l69.956 113.048z"/></symbol><symbol viewBox="0 0 512.853 512.853" id="delivery" xmlns="http://www.w3.org/2000/svg"><path d="M505.173 194.133l-74.24-81.92c-5.973-5.973-13.653-9.387-21.333-9.387h-85.333v-17.92c0-18.773-14.507-33.28-32.427-33.28H33.28C14.507 51.627 0 66.133 0 84.907V380.16c0 16.213 13.653 29.867 29.867 29.867H43.27c4.075 29.155 28.753 51.2 59.131 51.2s55.056-22.045 59.131-51.2H350.47c4.075 29.155 28.753 51.2 59.131 51.2s55.056-22.045 59.131-51.2h44.121V213.76c0-7.68-2.56-14.507-7.68-19.627zm-13.653 11.094c2.56 1.707 3.413 5.12 3.413 7.68v26.453h-128v-85.333h77.653l46.934 51.2zm-474.453 25.6h119.467c5.12 0 8.533-3.413 8.533-8.533s-3.413-8.533-8.533-8.533H17.067v-25.6H102.4c5.12 0 8.533-3.413 8.533-8.533 0-5.12-3.413-8.533-8.533-8.533H17.067V84.907c0-9.387 6.827-16.213 16.213-16.213h257.707c9.387 0 16.213 7.68 16.213 16.213V290.56H17.067v-59.733zM102.4 444.16c-23.893 0-42.667-18.773-42.667-42.667 0-23.893 18.773-42.667 42.667-42.667 23.893 0 42.667 18.773 42.667 42.667 0 23.894-18.774 42.667-42.667 42.667zm204.8-51.2H161.531c-3.821-27.339-25.761-48.416-53.528-50.936-.203-.019-.409-.029-.613-.046-.699-.056-1.397-.114-2.103-.147-.957-.046-1.919-.072-2.887-.072s-1.93.026-2.887.072c-.706.033-1.404.09-2.103.147-.204.017-.41.027-.613.046-27.767 2.52-49.707 23.597-53.528 50.936H29.867c-6.827 0-12.8-5.973-12.8-12.8v-72.533H307.2v85.333zm102.4 51.2c-23.893 0-42.667-18.773-42.667-42.667 0-23.893 18.773-42.667 42.667-42.667 23.893 0 42.667 18.773 42.667 42.667 0 23.894-18.774 42.667-42.667 42.667zm59.131-51.2c-3.821-27.339-25.761-48.416-53.528-50.936-.203-.019-.409-.029-.613-.046-.699-.056-1.397-.114-2.103-.147-.957-.046-1.919-.072-2.887-.072s-1.93.026-2.887.072c-.706.033-1.404.09-2.103.147-.204.017-.41.027-.613.046-27.767 2.52-49.707 23.597-53.528 50.936h-26.203V119.893H409.6c2.56 0 5.973 1.707 8.533 3.413l12.231 13.653h-65.991c-7.68 0-14.507 6.827-14.507 14.507v90.453c0 7.68 6.827 14.507 14.507 14.507h130.56v42.667h-42.667c-5.12 0-8.533 3.413-8.533 8.533s3.413 8.533 8.533 8.533h42.667v76.8h-26.202z"/><path d="M102.4 384.427c-9.387 0-17.067 7.68-17.067 17.067s7.68 17.067 17.067 17.067 17.067-7.68 17.067-17.067-7.68-17.067-17.067-17.067zm307.2 0c-9.387 0-17.067 7.68-17.067 17.067s7.68 17.067 17.067 17.067 17.067-7.68 17.067-17.067-7.68-17.067-17.067-17.067z"/></symbol><symbol viewBox="0 0 28 28" id="diameter" xmlns="http://www.w3.org/2000/svg"><path d="M23.898 4.101A13.904 13.904 0 0 0 14 0a13.905 13.905 0 0 0-9.899 4.101C1.456 6.745 0 10.261 0 14s1.456 7.255 4.101 9.898A13.904 13.904 0 0 0 14 28a13.9 13.9 0 0 0 9.898-4.102C26.544 21.255 28 17.739 28 14s-1.456-7.255-4.102-9.899zM3 14c0-2.938 1.144-5.701 3.222-7.778A10.933 10.933 0 0 1 14 3c2.432 0 4.734.794 6.639 2.241L5.241 20.639A10.915 10.915 0 0 1 3 14zm18.777 7.779A10.925 10.925 0 0 1 14 25.001c-2.432 0-4.735-.794-6.638-2.241L22.758 7.364a10.912 10.912 0 0 1 2.241 6.638 10.922 10.922 0 0 1-3.222 7.777z"/></symbol><symbol viewBox="0 0 470 470" id="equal" xmlns="http://www.w3.org/2000/svg"><path d="M79.919 339.424c28.16 0 54.048-16.622 65.994-41.854h6.424a7.5 7.5 0 0 0 0-15H7.5a7.5 7.5 0 0 0 0 15h6.425c11.946 25.232 37.834 41.854 65.994 41.854zm48.88-41.854c-10.521 16.409-28.986 26.854-48.88 26.854s-38.358-10.445-48.88-26.854h97.76zm333.701-15H317.663a7.5 7.5 0 0 0 0 15h6.424c11.946 25.232 37.834 41.854 65.994 41.854s54.048-16.622 65.994-41.854h6.425a7.5 7.5 0 0 0 0-15zm-72.419 41.854c-19.894 0-38.358-10.445-48.88-26.854h97.759c-10.521 16.409-28.985 26.854-48.879 26.854z"/><path d="M422.504 452.353h-38.377c-3.591-21.718-22.494-38.338-45.214-38.338h-4.775c-3.589-21.721-22.502-38.338-45.225-38.338H242.5V91.917h137.166l-57.763 172.775a7.5 7.5 0 0 0 4.735 9.491 7.497 7.497 0 0 0 9.491-4.735l53.953-161.377 53.953 161.377a7.502 7.502 0 0 0 7.112 5.124 7.5 7.5 0 0 0 7.114-9.88L400.496 91.917h12.292a7.5 7.5 0 0 0 0-15H242.5V33.001h36.651c11.775 0 21.355 9.58 21.355 21.355a7.5 7.5 0 0 0 7.5 7.5h22.707a7.5 7.5 0 0 0 0-15h-15.984c-3.466-16.46-18.102-28.855-35.578-28.855H242.5v-7.854a7.5 7.5 0 0 0-15 0v7.854h-36.651c-17.476 0-32.111 12.396-35.578 28.855h-15.984a7.5 7.5 0 0 0 0 15h22.707a7.5 7.5 0 0 0 7.5-7.5c0-11.775 9.58-21.355 21.355-21.355H227.5v43.916H57.212a7.5 7.5 0 0 0 0 15h12.292L11.741 264.692a7.5 7.5 0 0 0 4.735 9.491 7.498 7.498 0 0 0 9.491-4.735L79.919 108.07l53.953 161.377a7.502 7.502 0 0 0 7.112 5.124 7.5 7.5 0 0 0 7.114-9.88L90.334 91.917H227.5v283.76h-46.413c-22.722 0-41.635 16.617-45.225 38.338h-4.775c-22.72 0-41.623 16.62-45.214 38.338H47.496a7.5 7.5 0 0 0 0 15h375.009a7.5 7.5 0 1 0-.001-15zm-291.417-23.338h11.662a7.5 7.5 0 0 0 7.5-7.5c0-17.004 13.834-30.838 30.838-30.838h107.826c17.004 0 30.838 13.834 30.838 30.838a7.5 7.5 0 0 0 7.5 7.5h11.662c14.418 0 26.552 9.947 29.911 23.338H101.176c3.359-13.391 15.493-23.338 29.911-23.338z"/><path d="M297.251 414.015H172.749a7.5 7.5 0 0 0 0 15h124.502a7.5 7.5 0 0 0 0-15z"/></symbol><symbol viewBox="0 0 472.7 472.7" id="favorite" xmlns="http://www.w3.org/2000/svg"><path d="M433.5 67c-25.3-25.3-59-39.3-94.8-39.3s-69.6 14-94.9 39.4l-7.3 7.3-7.5-7.5c-25.4-25.4-59.1-39.4-95-39.4-35.8 0-69.4 13.9-94.7 39.3C13.9 92.2 0 125.9 0 161.7s14 69.5 39.4 94.8l182.7 182.7c3.8 3.8 9 6 14.5 6 5.4 0 10.6-2.2 14.5-6l182.2-182.4c25.4-25.4 39.3-59.1 39.4-94.9S458.8 92.4 433.5 67zm-301 50.2c-23.9 0-43.4 19.5-43.4 43.4 0 11-8.9 19.9-19.9 19.9s-19.9-8.9-19.9-19.9c0-45.8 37.3-83.1 83.1-83.1 11 0 19.9 8.9 19.9 19.9.1 11-8.8 19.8-19.8 19.8z"/></symbol><symbol viewBox="0 0 512 512" id="howOrder" xmlns="http://www.w3.org/2000/svg"><path d="M485.7 198.5c-10.7-13.4-25.3-20.8-41.1-20.8h-36.1C405.1 85.1 338 11 256 11S106.9 85.1 103.5 177.7H67.4c-15.8 0-30.4 7.4-41.1 20.8-13.5 16.8-18.4 40.2-13.3 62.7L56.3 452c6.5 28.8 28.9 49 54.4 49h290.5c25.5 0 47.9-20.1 54.4-49L499 261.2c5.1-22.5.2-45.9-13.3-62.7zM256 51.8c59.6 0 108.4 55.8 111.6 125.9H144.4c3.2-70 52-125.9 111.6-125.9zm203.2 200.3L415.9 443c-2.2 9.8-8.5 17.2-14.6 17.2H110.7c-6.1 0-12.4-7.4-14.6-17.2L52.8 252.1c-2.3-10.1-3.7-33.6 14.6-33.6h377.2c19.7 0 16.9 23.5 14.6 33.6z"/><path d="M154.7 259.1c-11.3 0-20.4 9.1-20.4 20.4V407c0 11.3 9.1 20.4 20.4 20.4 11.3 0 20.4-9.1 20.4-20.4V279.5c.1-11.2-9.1-20.4-20.4-20.4zm98.9 0c-11.3 0-20.4 9.1-20.4 20.4V407c0 11.3 9.1 20.4 20.4 20.4 11.3 0 20.4-9.1 20.4-20.4V279.5c0-11.2-9.2-20.4-20.4-20.4zm98.8 0c-11.3 0-20.4 9.1-20.4 20.4V407c0 11.3 9.1 20.4 20.4 20.4 11.3 0 20.4-9.1 20.4-20.4V279.5c0-11.2-9.1-20.4-20.4-20.4z"/></symbol><symbol viewBox="0 0 477 477" id="location" xmlns="http://www.w3.org/2000/svg"><path d="M238.4 0C133 0 47.2 85.8 47.2 191.2c0 12 1.1 24.1 3.4 35.9.1.7.5 2.8 1.3 6.4 2.9 12.9 7.2 25.6 12.8 37.7 20.6 48.5 65.9 123 165.3 202.8 2.5 2 5.5 3 8.5 3s6-1 8.5-3c99.3-79.8 144.7-154.3 165.3-202.8 5.6-12.1 9.9-24.7 12.8-37.7.8-3.6 1.2-5.7 1.3-6.4 2.2-11.8 3.4-23.9 3.4-35.9C429.6 85.8 343.8 0 238.4 0zm161.2 222.4c0 .2-.1.4-.1.6-.1.5-.4 2-.9 4.3v.2c-2.5 11.2-6.2 22.1-11.1 32.6-.1.1-.1.3-.2.4-18.7 44.3-59.7 111.9-148.9 185.6-89.2-73.7-130.2-141.3-148.9-185.6-.1-.1-.1-.3-.2-.4-4.8-10.4-8.5-21.4-11.1-32.6v-.2c-.6-2.3-.8-3.8-.9-4.3 0-.2-.1-.4-.1-.7-2-10.3-3-20.7-3-31.2 0-90.5 73.7-164.2 164.2-164.2s164.2 73.7 164.2 164.2c0 10.6-1 21.1-3 31.3z"/><path d="M238.4 71.9c-66.9 0-121.4 54.5-121.4 121.4s54.5 121.4 121.4 121.4 121.4-54.5 121.4-121.4S305.3 71.9 238.4 71.9zm0 215.8c-52.1 0-94.4-42.4-94.4-94.4s42.4-94.4 94.4-94.4 94.4 42.4 94.4 94.4-42.3 94.4-94.4 94.4z"/></symbol><symbol viewBox="0 0 512 512" id="login" xmlns="http://www.w3.org/2000/svg"><path d="M173.781 280.469c-4.16 4.16-4.16 10.923 0 15.083a10.716 10.716 0 0 0 7.552 3.115c2.731 0 5.461-1.045 7.531-3.115l64-64a10.643 10.643 0 0 0 2.304-3.477c.299-.747.341-1.515.469-2.304.107-.597.363-1.152.363-1.771 0-.811-.299-1.536-.469-2.283-.128-.576-.128-1.195-.363-1.749a11.19 11.19 0 0 0-2.368-3.563l-63.936-63.936c-4.16-4.16-10.923-4.16-15.083 0s-4.16 10.923 0 15.083l45.76 45.781H32c-5.888 0-10.667 4.779-10.667 10.667S26.112 234.667 32 234.667h187.584l-45.803 45.802z"/><path d="M444.608 0c-1.643 0-3.243.32-4.843.491-.81-.192-1.578-.491-2.432-.491h-256C151.936 0 128 23.936 128 53.333V160c0 5.888 4.779 10.667 10.667 10.667s10.667-4.779 10.667-10.667V53.333c0-17.643 14.357-32 32-32h204.032l-80.107 34.325a46.033 46.033 0 0 0-27.925 42.347v328.661h-96c-15.339 0-28.373-10.667-31.552-15.083l-.448-123.627c-.021-5.867-4.8-10.624-10.667-10.624h-.043c-5.888.021-10.645 4.821-10.624 10.709l.491 124.309c-.427 4.672 1.771 9.557 6.677 14.933 8.725 9.557 26.048 20.715 46.165 20.715h96v17.941c0 25.387 20.672 46.059 46.059 46.059a45.811 45.811 0 0 0 18.133-3.712l121.216-51.947a46.033 46.033 0 0 0 27.925-42.347V46.059C490.667 20.672 469.995 0 444.608 0zm24.725 413.995a24.677 24.677 0 0 1-14.997 22.72L333.12 488.661c-3.072 1.344-6.357 2.005-9.728 2.005-13.632 0-24.725-11.093-24.725-24.725V98.005a24.677 24.677 0 0 1 14.997-22.72L434.88 23.339c3.072-1.344 6.357-2.005 9.728-2.005 13.632 0 24.725 11.093 24.725 24.725v367.936z"/><path d="M330.667 234.667c-5.888 0-10.667 4.779-10.667 10.667V288c0 5.888 4.779 10.667 10.667 10.667s10.667-4.779 10.667-10.667v-42.667c-.001-5.888-4.779-10.666-10.667-10.666z"/></symbol><symbol viewBox="0 0 511.999 511.999" id="logo" xmlns="http://www.w3.org/2000/svg"><circle cx="10.06" cy="500.446" r="10.06"/><circle cx="267.005" cy="245.308" r="10.04"/><path d="M398.479 118.032c-8.071-8.072-18.802-12.516-30.216-12.516-11.414 0-22.146 4.446-30.216 12.516-16.661 16.662-16.661 43.772 0 60.433 8.332 8.331 19.272 12.495 30.216 12.495 10.941 0 21.886-4.166 30.216-12.495 16.661-16.662 16.661-43.772 0-60.433zm-14.197 46.234c-8.833 8.832-23.206 8.832-32.037 0-8.833-8.832-8.833-23.204 0-32.037a22.503 22.503 0 0 1 16.018-6.635 22.503 22.503 0 0 1 16.018 6.635c8.833 8.833 8.833 23.205.001 32.037zM125.409 411.45c-4.964-2.472-10.99-.451-13.462 4.512l-11.958 24.015c-5.2 10.441-15.658 17.423-27.296 18.219l-13.908.952c-2.351.157-3.897-1.014-4.612-1.729s-1.889-2.264-1.729-4.613l.952-13.907c.797-11.637 7.779-22.096 18.219-27.296l24.014-11.958c4.964-2.472 6.984-8.499 4.512-13.462-2.471-4.963-8.498-6.984-13.462-4.512l-24.014 11.958c-16.792 8.362-28.02 25.182-29.302 43.898l-.952 13.907a26.021 26.021 0 0 0 7.562 20.183 26.024 26.024 0 0 0 20.183 7.563l13.908-.952c18.716-1.281 35.536-12.508 43.898-29.302l11.958-24.014c2.472-4.964.452-10.99-4.511-13.462z"/><path d="M505.07 8.18a23.246 23.246 0 0 0-17.793-6.639l-9.348.596c-83.819 5.351-162.262 45.81-215.215 111.004L240.71 140.23l-57.583-1.691a9.65 9.65 0 0 0-.294-.004c-45.668 0-88.603 17.784-120.896 50.076L2.959 247.59a10.04 10.04 0 0 0 6.584 17.125l124.844 6.414-5.09 6.267a10.039 10.039 0 0 0-1.026 11.127 233.734 233.734 0 0 0 6.144 10.617l-29.606 35.147a10.045 10.045 0 0 0-1.397 10.763c6.467 13.665 15.05 25.943 25.514 36.493 10.718 10.808 23.251 19.646 37.249 26.271a10.042 10.042 0 0 0 10.62-1.278c6.378-5.174 13.731-11.311 20.843-17.245 5.069-4.23 10.255-8.557 15.102-12.547a232.586 232.586 0 0 0 8.795 5.046 10.026 10.026 0 0 0 4.796 1.221c2.186 0 4.358-.712 6.156-2.108l6.843-5.31 6.442 125.37a10.041 10.041 0 0 0 10.023 9.526c2.615 0 5.183-1.023 7.101-2.942l58.979-58.979c32.293-32.293 50.076-75.227 50.076-120.896v-54.995l23.267-18.055c69.729-54.11 112.196-135.704 116.512-223.862l.239-4.886A23.262 23.262 0 0 0 505.07 8.18zM33.123 245.822l43.012-43.012c28.465-28.465 66.303-44.157 106.553-44.196l42.085 1.236-74.71 91.98-116.94-6.008zm151.651 128.052c-5.241 4.372-10.614 8.856-15.6 12.957-9.644-5.223-18.368-11.74-25.992-19.428-7.384-7.445-13.669-15.922-18.737-25.26l21.676-25.733a232.758 232.758 0 0 0 21.478 24.925l.018.017.006.007.009.008a232.765 232.765 0 0 0 27.641 23.761c-3.462 2.874-7.009 5.834-10.499 8.746zm167.101-46.202c0 40.305-15.695 78.197-44.196 106.698l-43.012 43.012-6.002-116.792 93.209-72.33v39.412zM491.678 29.779c-4.029 82.297-43.673 158.467-108.767 208.98l-157.46 122.189c-13.058-7.63-25.229-16.639-36.368-26.846l53.086-53.086c3.92-3.92 3.92-10.278 0-14.199-3.921-3.921-10.278-3.921-14.199 0l-53.036 53.036c-9.751-10.795-18.387-22.541-25.74-35.104L278.3 125.8c49.432-60.859 122.66-98.629 200.907-103.623l9.348-.596a3.151 3.151 0 0 1 2.423.904c.377.371 1 1.178.94 2.409l-.24 4.885z"/></symbol><symbol viewBox="0 0 477.859 477.859" id="payment" xmlns="http://www.w3.org/2000/svg"><path d="M430.787 409.961H48.103C21.379 409.961 0 388.582 0 361.859V116c0-26.724 21.379-48.103 48.103-48.103h381.615c26.724 0 48.103 21.379 48.103 48.103v246.927c1.068 25.655-20.311 47.034-47.034 47.034zM48.103 99.966c-8.552 0-16.034 7.483-16.034 16.034v246.927c0 8.552 7.483 16.034 16.034 16.034h381.615c8.552 0 16.034-7.483 16.034-16.034V116c0-8.552-7.483-16.034-16.034-16.034H48.103z"/><path d="M16.034 142.724h445.752v59.861H16.034z"/><circle cx="369.857" cy="310.549" r="35.275"/><circle cx="322.823" cy="310.549" r="35.275"/><path d="M180.653 253.895H76.964c-3.207 0-5.345-2.138-5.345-5.345s2.138-5.345 5.345-5.345h103.688c3.207 0 5.345 2.138 5.345 5.345 0 2.138-2.138 5.345-5.344 5.345z"/></symbol><symbol viewBox="0 0 511.998 511.998" id="register" xmlns="http://www.w3.org/2000/svg"><path d="M389.688 30.963h-72.885v14.771h72.885c5.591.001 10.14 4.549 10.14 10.141a9.983 9.983 0 0 1-1.112 4.612l13.135 6.755a24.962 24.962 0 0 0 2.747-11.367c.001-13.737-11.174-24.912-24.91-24.912zm-112.543.001h18.351v14.771h-18.351zM91.695 163.135h260.956v14.771H91.695zm0 269.247h260.956v14.771H91.695zm347.724-264.46l-10.445 10.444 9.184 9.185-30.329 30.329 10.444 10.445 40.774-40.774zm-50.669 69.046l9.838-9.838 10.444 10.444-9.838 9.838z"/><path d="M500.074 124.633l-5.464-5.464c-15.873-15.874-41.704-15.874-57.578 0l-5.341 5.341-10.445 10.444-27.072 27.072v-56.217c25.554-2.279 45.658-23.797 45.658-49.934 0-27.65-22.496-50.146-50.145-50.146H50.145C22.496 5.729 0 28.224 0 55.874v399.255h42.76v51.141h351.416V288.11l90.113-90.113 7.892-7.893 2.551-2.551 5.341-5.341c7.69-7.69 11.925-17.913 11.925-28.788s-4.233-21.102-11.924-28.791zM85.65 20.5h304.038c19.506 0 35.374 15.869 35.374 35.375s-15.869 35.374-35.374 35.374H85.65c9.042-9.075 14.641-21.583 14.641-35.374 0-13.793-5.598-26.3-14.641-35.375zM42.76 91.248v349.11H14.771V55.874c0-19.506 15.87-35.375 35.375-35.375 19.505 0 35.374 15.87 35.374 35.375 0 19.506-15.87 35.374-35.374 35.374H42.76zm336.646 400.251H57.53V106.02h321.875v70.776l-32.022 32.021H91.692v14.771h240.922l-30.915 30.915H91.692v14.771h195.237l-30.914 30.914H91.692v14.771h149.553l-2.577 2.577-8.401 28.338H91.692v14.771h134.197l-9.165 30.915H91.692v14.771h260.953V391.56h-87.977l37.042-10.98 19.933-19.933h31.001v-14.771h-16.23l42.992-42.992v188.615zM248.768 335.428l35.047 35.047-49.813 14.767 14.766-49.814zm49.044 28.156l-42.153-42.153 176.032-176.032 42.153 42.153-176.032 176.032zm191.819-191.818l-5.341 5.341-42.153-42.153 5.341-5.341c10.115-10.115 26.573-10.115 36.689 0l5.464 5.464c4.9 4.9 7.599 11.415 7.599 18.344-.001 6.93-2.7 13.445-7.599 18.345z"/></symbol><symbol viewBox="0 0 56.966 56.966" id="search" xmlns="http://www.w3.org/2000/svg"><path d="M55.146 51.887L41.588 37.786A22.926 22.926 0 0 0 46.984 23c0-12.682-10.318-23-23-23s-23 10.318-23 23 10.318 23 23 23c4.761 0 9.298-1.436 13.177-4.162l13.661 14.208c.571.593 1.339.92 2.162.92.779 0 1.518-.297 2.079-.837a3.004 3.004 0 0 0 .083-4.242zM23.984 6c9.374 0 17 7.626 17 17s-7.626 17-17 17-17-7.626-17-17 7.626-17 17-17z"/></symbol></svg>